<svg xmlns="http://www.w3.org/2000/svg" xmlns:xlink="http://www.w3.org/1999/xlink" width="200" zoomAndPan="magnify" viewBox="0 0 150 60" height="80" preserveAspectRatio="xMidYMid meet" version="1.0"><defs><g/><clipPath id="d3a52ea1a1"><rect x="0" width="141" y="0" height="50"/></clipPath></defs><g transform="matrix(1, 0, 0, 1, 3, 6)"><g clip-path="url(#d3a52ea1a1)"><g fill="#cee53f" fill-opacity="0.4"><g transform="translate(2.660554, 41.515525)"><g><path d="M 1.921875 0 L 1.921875 -33.5625 L 20.625 -33.5625 C 22.226562 -33.5625 23.453125 -33.132812 24.296875 -32.28125 C 25.148438 -31.4375 25.578125 -30.210938 25.578125 -28.609375 L 25.578125 -4.953125 C 25.578125 -3.378906 25.148438 -2.160156 24.296875 -1.296875 C 23.453125 -0.429688 22.226562 0 20.625 0 Z M 7.84375 -5.96875 L 19.671875 -5.96875 L 19.671875 -27.65625 L 7.84375 -27.65625 Z M 7.84375 -5.96875 "/></g></g></g><g fill="#cee53f" fill-opacity="0.4"><g transform="translate(30.17243, 41.515525)"><g><path d="M 1.921875 0 L 1.921875 -25.6875 L 7.84375 -25.6875 L 7.84375 0 Z M 1.921875 -27.65625 L 1.921875 -33.5625 L 7.84375 -33.5625 L 7.84375 -27.65625 Z M 1.921875 -27.65625 "/></g></g></g><g fill="#cee53f" fill-opacity="0.4"><g transform="translate(39.936263, 41.515525)"><g><path d="M 6.828125 0 C 5.253906 0 4.039062 -0.429688 3.1875 -1.296875 C 2.34375 -2.160156 1.921875 -3.378906 1.921875 -4.953125 L 1.921875 -28.609375 C 1.921875 -30.210938 2.34375 -31.4375 3.1875 -32.28125 C 4.039062 -33.132812 5.253906 -33.5625 6.828125 -33.5625 L 25.578125 -33.5625 L 25.578125 -27.65625 L 7.84375 -27.65625 L 7.84375 -5.96875 L 19.671875 -5.96875 L 19.671875 -19.765625 L 25.578125 -19.765625 L 25.578125 0 Z M 6.828125 0 "/></g></g></g><g fill="#cee53f" fill-opacity="0.4"><g transform="translate(67.448139, 41.515525)"><g><path d="M 1.921875 0 L 1.921875 -25.6875 L 7.84375 -25.6875 L 7.84375 0 Z M 1.921875 -27.65625 L 1.921875 -33.5625 L 7.84375 -33.5625 L 7.84375 -27.65625 Z M 1.921875 -27.65625 "/></g></g></g><g fill="#cee53f" fill-opacity="0.4"><g transform="translate(77.211971, 41.515525)"><g><path d="M 1.921875 0 L 1.921875 -33.5625 L 20.625 -33.5625 C 22.226562 -33.5625 23.453125 -33.132812 24.296875 -32.28125 C 25.148438 -31.4375 25.578125 -30.210938 25.578125 -28.609375 L 25.578125 -4.953125 C 25.578125 -3.378906 25.148438 -2.160156 24.296875 -1.296875 C 23.453125 -0.429688 22.226562 0 20.625 0 Z M 7.84375 -5.96875 L 19.671875 -5.96875 L 19.671875 -27.65625 L 7.84375 -27.65625 Z M 7.84375 -5.96875 "/></g></g></g><g fill="#cee53f" fill-opacity="0.4"><g transform="translate(104.723848, 41.515525)"><g><path d="M 1.921875 0 L 1.921875 -33.5625 L 7.84375 -33.5625 L 7.84375 0 Z M 1.921875 0 "/></g></g></g><g fill="#cee53f" fill-opacity="0.4"><g transform="translate(114.48768, 41.515525)"><g><path d="M 6.828125 0 C 5.253906 0 4.039062 -0.429688 3.1875 -1.296875 C 2.34375 -2.160156 1.921875 -3.378906 1.921875 -4.953125 L 1.921875 -28.609375 C 1.921875 -30.210938 2.34375 -31.4375 3.1875 -32.28125 C 4.039062 -33.132812 5.253906 -33.5625 6.828125 -33.5625 L 25.578125 -33.5625 L 25.578125 -27.65625 L 7.84375 -27.65625 L 7.84375 -5.96875 L 19.671875 -5.96875 L 19.671875 -19.765625 L 25.578125 -19.765625 L 25.578125 0 Z M 6.828125 0 "/></g></g></g><g fill="#cee53f" fill-opacity="1"><g transform="translate(0.534617, 39.389588)"><g><path d="M 1.921875 0 L 1.921875 -33.5625 L 20.625 -33.5625 C 22.226562 -33.5625 23.453125 -33.132812 24.296875 -32.28125 C 25.148438 -31.4375 25.578125 -30.210938 25.578125 -28.609375 L 25.578125 -4.953125 C 25.578125 -3.378906 25.148438 -2.160156 24.296875 -1.296875 C 23.453125 -0.429688 22.226562 0 20.625 0 Z M 7.84375 -5.96875 L 19.671875 -5.96875 L 19.671875 -27.65625 L 7.84375 -27.65625 Z M 7.84375 -5.96875 "/></g></g></g><g fill="#cee53f" fill-opacity="1"><g transform="translate(28.046493, 39.389588)"><g><path d="M 1.921875 0 L 1.921875 -25.6875 L 7.84375 -25.6875 L 7.84375 0 Z M 1.921875 -27.65625 L 1.921875 -33.5625 L 7.84375 -33.5625 L 7.84375 -27.65625 Z M 1.921875 -27.65625 "/></g></g></g><g fill="#cee53f" fill-opacity="1"><g transform="translate(37.810326, 39.389588)"><g><path d="M 6.828125 0 C 5.253906 0 4.039062 -0.429688 3.1875 -1.296875 C 2.34375 -2.160156 1.921875 -3.378906 1.921875 -4.953125 L 1.921875 -28.609375 C 1.921875 -30.210938 2.34375 -31.4375 3.1875 -32.28125 C 4.039062 -33.132812 5.253906 -33.5625 6.828125 -33.5625 L 25.578125 -33.5625 L 25.578125 -27.65625 L 7.84375 -27.65625 L 7.84375 -5.96875 L 19.671875 -5.96875 L 19.671875 -19.765625 L 25.578125 -19.765625 L 25.578125 0 Z M 6.828125 0 "/></g></g></g><g fill="#cee53f" fill-opacity="1"><g transform="translate(65.322202, 39.389588)"><g><path d="M 1.921875 0 L 1.921875 -25.6875 L 7.84375 -25.6875 L 7.84375 0 Z M 1.921875 -27.65625 L 1.921875 -33.5625 L 7.84375 -33.5625 L 7.84375 -27.65625 Z M 1.921875 -27.65625 "/></g></g></g><g fill="#cee53f" fill-opacity="1"><g transform="translate(75.086035, 39.389588)"><g><path d="M 1.921875 0 L 1.921875 -33.5625 L 20.625 -33.5625 C 22.226562 -33.5625 23.453125 -33.132812 24.296875 -32.28125 C 25.148438 -31.4375 25.578125 -30.210938 25.578125 -28.609375 L 25.578125 -4.953125 C 25.578125 -3.378906 25.148438 -2.160156 24.296875 -1.296875 C 23.453125 -0.429688 22.226562 0 20.625 0 Z M 7.84375 -5.96875 L 19.671875 -5.96875 L 19.671875 -27.65625 L 7.84375 -27.65625 Z M 7.84375 -5.96875 "/></g></g></g><g fill="#cee53f" fill-opacity="1"><g transform="translate(102.597911, 39.389588)"><g><path d="M 1.921875 0 L 1.921875 -33.5625 L 7.84375 -33.5625 L 7.84375 0 Z M 1.921875 0 "/></g></g></g><g fill="#cee53f" fill-opacity="1"><g transform="translate(112.361743, 39.389588)"><g><path d="M 6.828125 0 C 5.253906 0 4.039062 -0.429688 3.1875 -1.296875 C 2.34375 -2.160156 1.921875 -3.378906 1.921875 -4.953125 L 1.921875 -28.609375 C 1.921875 -30.210938 2.34375 -31.4375 3.1875 -32.28125 C 4.039062 -33.132812 5.253906 -33.5625 6.828125 -33.5625 L 25.578125 -33.5625 L 25.578125 -27.65625 L 7.84375 -27.65625 L 7.84375 -5.96875 L 19.671875 -5.96875 L 19.671875 -19.765625 L 25.578125 -19.765625 L 25.578125 0 Z M 6.828125 0 "/></g></g></g></g></g></svg>